<svg xmlns="http://www.w3.org/2000/svg" width="256" height="256" fill="none" viewBox="0 0 256 256"><path fill="#fff" d="M0 0h256v256H0z"/><path fill="#000" d="M16 185v-7.654h15.186c3.429 0 4.572-.815 4.898-3.095V81.749c-.326-2.28-1.47-3.095-4.898-3.095H16V71h51.599v7.654H52.577c-3.43 0-4.573.815-4.9 3.095v57.814l57.642-57.977c1.796-1.792 1.143-3.583-1.47-3.583H85.887V71h48.987v7.003h-12.247c-2.449 0-4.409.814-5.715 2.117l-38.046 37.783L133.567 185h-15.839l-46.7-59.28-20.9 20.846c-1.797 1.791-2.45 3.583-2.45 6.025v21.66c.326 2.28 1.47 3.095 4.899 3.095h15.022V185zM174.633 185V96.299h-34.561V71H240v25.299h-34.404V185z"/></svg>