<svg width="32" height="32" viewBox="0 0 32 32" fill="none" xmlns="http://www.w3.org/2000/svg">
<rect width="32" height="32" fill="black"/>
<path d="M13.4562 10.9214H15.2734C15.0111 13.0259 13.2314 14.5292 11.0395 14.5292C8.06075 14.5292 6 11.767 6 7.76458C6 3.7622 8.04202 1 11.0207 1C13.1377 1 14.8425 2.40929 15.1423 4.41987H13.3438C13.1002 3.38639 12.1635 2.70994 11.0395 2.70994C9.10987 2.70994 7.87341 4.70173 7.87341 7.78337C7.87341 10.8462 9.1286 12.8192 11.0582 12.8192C12.2759 12.8192 13.2314 12.0488 13.4562 10.9214Z" fill="white"/>
<path d="M16.8765 14.3413V1.1879H20.642C23.8081 1.1879 26 3.85616 26 7.76458C26 11.673 23.8081 14.3413 20.642 14.3413H16.8765ZM18.7499 12.6877H20.642C22.759 12.6877 24.1266 10.7523 24.1266 7.76458C24.1266 4.77689 22.759 2.84147 20.642 2.84147H18.7499V12.6877Z" fill="white"/>
<path d="M6.74937 30V28.3464H9.61569V18.5002H6.78683V16.8467H14.3367V18.5002H11.4891V28.3464H14.3742V30H6.74937Z" fill="white"/>
<path d="M16.8765 30V16.8467H20.642C23.8081 16.8467 26 19.5149 26 23.4233C26 27.3317 23.8081 30 20.642 30H16.8765ZM18.7499 28.3464H20.642C22.759 28.3464 24.1266 26.411 24.1266 23.4233C24.1266 20.4356 22.759 18.5002 20.642 18.5002H18.7499V28.3464Z" fill="white"/>
</svg>
