<svg xmlns="http://www.w3.org/2000/svg" width="32" height="32" fill="none" viewBox="0 0 32 32"><path fill="#000" d="M0 0h32v32H0z"/><path fill="#fff" d="M13.456 10.921h1.817c-.262 2.105-2.042 3.608-4.233 3.608C8.06 14.53 6 11.767 6 7.765S8.042 1 11.02 1c2.118 0 3.823 1.41 4.122 3.42h-1.798c-.244-1.034-1.18-1.71-2.304-1.71-1.93 0-3.167 1.992-3.167 5.073 0 3.063 1.256 5.036 3.185 5.036 1.218 0 2.173-.77 2.398-1.898M16.877 14.341V1.188h3.765C23.808 1.188 26 3.856 26 7.765s-2.192 6.576-5.358 6.576zm1.873-1.653h1.892c2.117 0 3.485-1.936 3.485-4.923S22.759 2.84 20.642 2.84H18.75zM6.75 30v-1.654h2.866V18.5h-2.83v-1.653h7.55V18.5H11.49v9.846h2.885V30zM16.877 30V16.847h3.765c3.166 0 5.358 2.668 5.358 6.576C26 27.332 23.808 30 20.642 30zm1.873-1.654h1.892c2.117 0 3.485-1.935 3.485-4.923S22.759 18.5 20.642 18.5H18.75z"/></svg>